{
  "accessors": [
    {
      "bufferView": 2,
      "componentType": 5126,
      "count": 248,
      "max": [
        21.669921875,
        16.5234375,
        -0
      ],
      "min": [
        -0.1171875,
        0,
        -9
      ],
      "type": "VEC3"
    },
    {
      "bufferView": 2,
      "byteOffset": 2976,
      "componentType": 5126,
      "count": 248,
      "max": [
        1,
        1,
        -0
      ],
      "min": [
        -1,
        -1,
        -0
      ],
      "type": "VEC3"
    },
    {
      "bufferView": 3,
      "componentType": 5126,
      "count": 248,
      "max": [
        1,
        1,
        0,
        -1
      ],
      "min": [
        -1,
        -1,
        0,
        -1
      ],
      "type": "VEC4"
    },
    {
      "bufferView": 1,
      "componentType": 5126,
      "count": 248,
      "max": [
        1,
        1
      ],
      "min": [
        0,
        0
      ],
      "type": "VEC2"
    },
    {
      "bufferView": 0,
      "componentType": 5125,
      "count": 570,
      "max": [
        247
      ],
      "min": [
        0
      ],
      "type": "SCALAR"
    },
    {
      "bufferView": 2,
      "byteOffset": 5952,
      "componentType": 5126,
      "count": 95,
      "max": [
        21.669921875,
        16.5234375,
        -0
      ],
      "min": [
        -0.1171875,
        0,
        -0
      ],
      "type": "VEC3"
    },
    {
      "bufferView": 2,
      "byteOffset": 7092,
      "componentType": 5126,
      "count": 95,
      "max": [
        0,
        0,
        1
      ],
      "min": [
        0,
        0,
        1
      ],
      "type": "VEC3"
    },
    {
      "bufferView": 3,
      "byteOffset": 3968,
      "componentType": 5126,
      "count": 95,
      "max": [
        1,
        4.8505867198400665e-06,
        0,
        1
      ],
      "min": [
        1,
        -7.3260312092315871e-06,
        0,
        1
      ],
      "type": "VEC4"
    },
    {
      "bufferView": 1,
      "byteOffset": 1984,
      "componentType": 5126,
      "count": 95,
      "max": [
        1,
        1
      ],
      "min": [
        0,
        0.24159574508666992
      ],
      "type": "VEC2"
    },
    {
      "bufferView": 0,
      "byteOffset": 2280,
      "componentType": 5125,
      "count": 285,
      "max": [
        94
      ],
      "min": [
        0
      ],
      "type": "SCALAR"
    },
    {
      "bufferView": 2,
      "byteOffset": 8232,
      "componentType": 5126,
      "count": 95,
      "max": [
        21.669921875,
        16.5234375,
        -9
      ],
      "min": [
        -0.1171875,
        0,
        -9
      ],
      "type": "VEC3"
    },
    {
      "bufferView": 2,
      "byteOffset": 9372,
      "componentType": 5126,
      "count": 95,
      "max": [
        0,
        0,
        -1
      ],
      "min": [
        0,
        0,
        -1
      ],
      "type": "VEC3"
    },
    {
      "bufferView": 3,
      "byteOffset": 5488,
      "componentType": 5126,
      "count": 95,
      "max": [
        1,
        4.8505862650927156e-06,
        0,
        -1
      ],
      "min": [
        1,
        -7.3367532422707882e-06,
        0,
        -1
      ],
      "type": "VEC4"
    },
    {
      "bufferView": 1,
      "byteOffset": 2744,
      "componentType": 5126,
      "count": 95,
      "max": [
        1,
        1
      ],
      "min": [
        0,
        0.24159574508666992
      ],
      "type": "VEC2"
    },
    {
      "bufferView": 0,
      "byteOffset": 3420,
      "componentType": 5125,
      "count": 285,
      "max": [
        94
      ],
      "min": [
        0
      ],
      "type": "SCALAR"
    }
  ],
  "asset": {
    "extras": {
      "author": "abcdeeeeeee (https://sketchfab.com/abcdeeeeeee)",
      "license": "CC-BY-4.0 (http://creativecommons.org/licenses/by/4.0/)",
      "source": "https://sketchfab.com/3d-models/markerr2-e3429f426bae45e99e89519e6f26e6f7",
      "title": "Markerr2"
    },
    "generator": "Sketchfab-6.8.0",
    "version": "2.0"
  },
  "bufferViews": [
    {
      "buffer": 0,
      "byteLength": 4560,
      "byteOffset": 0,
      "name": "floatBufferViews",
      "target": 34963
    },
    {
      "buffer": 0,
      "byteLength": 3504,
      "byteOffset": 4560,
      "byteStride": 8,
      "name": "floatBufferViews",
      "target": 34962
    },
    {
      "buffer": 0,
      "byteLength": 10512,
      "byteOffset": 8064,
      "byteStride": 12,
      "name": "floatBufferViews",
      "target": 34962
    },
    {
      "buffer": 0,
      "byteLength": 7008,
      "byteOffset": 18576,
      "byteStride": 16,
      "name": "floatBufferViews",
      "target": 34962
    }
  ],
  "buffers": [
    {
      "byteLength": 25584,
      "uri": "scene.bin"
    }
  ],
  "materials": [
    {
      "doubleSided": true,
      "emissiveFactor": [
        0,
        0,
        0
      ],
      "name": "Material",
      "pbrMetallicRoughness": {
        "baseColorFactor": [
          0.062745099999999998,
          0.196078,
          0.80000000000000004,
          1
        ],
        "metallicFactor": 0,
        "roughnessFactor": 0.59999999999999998
      }
    }
  ],
  "meshes": [
    {
      "name": "Estrusione_Material_0",
      "primitives": [
        {
          "attributes": {
            "NORMAL": 1,
            "POSITION": 0,
            "TANGENT": 2,
            "TEXCOORD_0": 3
          },
          "indices": 4,
          "material": 0,
          "mode": 4
        }
      ]
    },
    {
      "name": "Tappo_1_Material_0",
      "primitives": [
        {
          "attributes": {
            "NORMAL": 6,
            "POSITION": 5,
            "TANGENT": 7,
            "TEXCOORD_0": 8
          },
          "indices": 9,
          "material": 0,
          "mode": 4
        }
      ]
    },
    {
      "name": "Tappo_2_Material_0",
      "primitives": [
        {
          "attributes": {
            "NORMAL": 11,
            "POSITION": 10,
            "TANGENT": 12,
            "TEXCOORD_0": 13
          },
          "indices": 14,
          "material": 0,
          "mode": 4
        }
      ]
    }
  ],
  "nodes": [
    {
      "children": [
        1
      ],
      "name": "RootNode (gltf orientation matrix)",
      "rotation": [
        -0.70710678118654746,
        -0,
        -0,
        0.70710678118654757
      ]
    },
    {
      "children": [
        2
      ],
      "name": "RootNode (model correction matrix)"
    },
    {
      "children": [
        3
      ],
      "matrix": [
        1,
        0,
        0,
        0,
        0,
        0,
        1,
        0,
        0,
        -1,
        0,
        0,
        0,
        0,
        0,
        1
      ],
      "name": "9d77695bbdde4605a2a1e51e0ab3c331.fbx"
    },
    {
      "children": [
        4
      ],
      "name": "RootNode"
    },
    {
      "children": [
        5
      ],
      "matrix": [
        0.88418408132323545,
        0,
        -0.4671386414487525,
        0,
        0,
        1,
        0,
        0,
        0.4671386414487525,
        0,
        0.88418408132323545,
        0,
        0,
        0,
        0,
        1
      ],
      "name": "Nullo"
    },
    {
      "children": [
        6,
        7,
        9
      ],
      "matrix": [
        1,
        0,
        -5.5511151231257815e-17,
        0,
        0,
        1,
        0,
        0,
        5.5511151231257815e-17,
        0,
        1,
        0,
        0,
        0,
        0,
        1
      ],
      "name": "Estrusione"
    },
    {
      "mesh": 0,
      "name": "Estrusione_Material_0"
    },
    {
      "children": [
        8
      ],
      "matrix": [
        1,
        0,
        -1.1102230246251563e-16,
        0,
        0,
        1,
        0,
        0,
        1.1102230246251563e-16,
        0,
        1,
        0,
        0,
        0,
        0,
        1
      ],
      "name": "Tappo_1"
    },
    {
      "mesh": 1,
      "name": "Tappo_1_Material_0"
    },
    {
      "children": [
        10
      ],
      "matrix": [
        1,
        0,
        -1.1102230246251563e-16,
        0,
        0,
        1,
        0,
        0,
        1.1102230246251563e-16,
        0,
        1,
        0,
        0,
        0,
        0,
        1
      ],
      "name": "Tappo_2"
    },
    {
      "mesh": 2,
      "name": "Tappo_2_Material_0"
    }
  ],
  "scene": 0,
  "scenes": [
    {
      "name": "OSG_Scene",
      "nodes": [
        0
      ]
    }
  ]
}

