{
  "accessors": [
    {
      "bufferView": 2,
      "componentType": 5126,
      "count": 7926,
      "max": [
        52.257450103759766,
        180.15226745605469,
        59.680267333984375
      ],
      "min": [
        -22.858541488647461,
        -17.644302368164062,
        -47.128772735595703
      ],
      "type": "VEC3"
    },
    {
      "bufferView": 2,
      "byteOffset": 95112,
      "componentType": 5126,
      "count": 7926,
      "max": [
        0.9999125599861145,
        0.99992614984512329,
        0.99983453750610352
      ],
      "min": [
        -0.9997783899307251,
        -0.99979633092880249,
        -0.99999892711639404
      ],
      "type": "VEC3"
    },
    {
      "bufferView": 3,
      "componentType": 5126,
      "count": 7926,
      "max": [
        0.99992018938064575,
        0.99993902444839478,
        0.99796706438064575,
        1
      ],
      "min": [
        -0.99875640869140625,
        -0.99994617700576782,
        -0.99997061491012573,
        -1
      ],
      "type": "VEC4"
    },
    {
      "bufferView": 1,
      "componentType": 5126,
      "count": 7926,
      "max": [
        1.4836547374725342,
        0.99933367967605591
      ],
      "min": [
        7.9370965977432206e-06,
        0.20061886310577393
      ],
      "type": "VEC2"
    },
    {
      "bufferView": 0,
      "componentType": 5125,
      "count": 30171,
      "max": [
        7925
      ],
      "min": [
        0
      ],
      "type": "SCALAR"
    }
  ],
  "asset": {
    "extras": {
      "author": "abcdeeeeeee (https://sketchfab.com/abcdeeeeeee)",
      "license": "CC-BY-4.0 (http://creativecommons.org/licenses/by/4.0/)",
      "source": "https://sketchfab.com/3d-models/boylowlow-1f5cf3d7754549c8832ec1405c6dc36e",
      "title": "Boylowlow"
    },
    "generator": "Sketchfab-6.9.0",
    "version": "2.0"
  },
  "bufferViews": [
    {
      "buffer": 0,
      "byteLength": 120684,
      "byteOffset": 0,
      "name": "floatBufferViews",
      "target": 34963
    },
    {
      "buffer": 0,
      "byteLength": 63408,
      "byteOffset": 120684,
      "byteStride": 8,
      "name": "floatBufferViews",
      "target": 34962
    },
    {
      "buffer": 0,
      "byteLength": 190224,
      "byteOffset": 184092,
      "byteStride": 12,
      "name": "floatBufferViews",
      "target": 34962
    },
    {
      "buffer": 0,
      "byteLength": 126816,
      "byteOffset": 374316,
      "byteStride": 16,
      "name": "floatBufferViews",
      "target": 34962
    }
  ],
  "buffers": [
    {
      "byteLength": 501132,
      "uri": "scene.bin"
    }
  ],
  "images": [
    {
      "uri": "textures/Nuovo_baseColor.jpeg"
    }
  ],
  "materials": [
    {
      "doubleSided": true,
      "emissiveFactor": [
        0,
        0,
        0
      ],
      "name": "Nuovo",
      "pbrMetallicRoughness": {
        "baseColorFactor": [
          1,
          1,
          1,
          1
        ],
        "baseColorTexture": {
          "index": 0,
          "texCoord": 0
        },
        "metallicFactor": 0,
        "roughnessFactor": 0.95243171539989113
      }
    }
  ],
  "meshes": [
    {
      "name": "mmGroup0_Nuovo_0",
      "primitives": [
        {
          "attributes": {
            "NORMAL": 1,
            "POSITION": 0,
            "TANGENT": 2,
            "TEXCOORD_0": 3
          },
          "indices": 4,
          "material": 0,
          "mode": 4
        }
      ]
    }
  ],
  "nodes": [
    {
      "children": [
        1
      ],
      "name": "RootNode (gltf orientation matrix)",
      "rotation": [
        -0.70710678118654746,
        -0,
        -0,
        0.70710678118654757
      ]
    },
    {
      "children": [
        2
      ],
      "name": "RootNode (model correction matrix)"
    },
    {
      "children": [
        3
      ],
      "matrix": [
        1,
        0,
        0,
        0,
        0,
        0,
        1,
        0,
        0,
        -1,
        0,
        0,
        0,
        0,
        0,
        1
      ],
      "name": "13d3b15d1e374878aa910c56281d3d30.fbx"
    },
    {
      "children": [
        4
      ],
      "name": "RootNode"
    },
    {
      "children": [
        5
      ],
      "name": "mmGroup0"
    },
    {
      "mesh": 0,
      "name": "mmGroup0_Nuovo_0"
    }
  ],
  "samplers": [
    {
      "magFilter": 9729,
      "minFilter": 9987,
      "wrapS": 10497,
      "wrapT": 10497
    }
  ],
  "scene": 0,
  "scenes": [
    {
      "name": "OSG_Scene",
      "nodes": [
        0
      ]
    }
  ],
  "textures": [
    {
      "sampler": 0,
      "source": 0
    }
  ]
}

